<svg width="270" height="60" viewBox="0 0 270 60" version="1.1" xmlns="http://www.w3.org/2000/svg" xmlns:xlink="http://www.w3.org/1999/xlink">
<title>Rectangle 6</title>
<desc>Created using Figma</desc>
<g id="Canvas" transform="translate(-6053 755)">
<g id="Rectangle 6">
<use xlink:href="#path0_fill" transform="matrix(-1 0 0 1 6323 -755)" fill="#FF0049"/>
<mask id="mask0_outline_ins">
<use xlink:href="#path0_fill" fill="white" transform="matrix(-1 0 0 1 6323 -755)"/>
</mask>
<g mask="url(#mask0_outline_ins)">
<use xlink:href="#path1_stroke_2x" transform="matrix(-1 0 0 1 6323 -755)" fill="#FF0049"/>
</g>
</g>
</g>
<defs>
<path id="path0_fill" d="M 0 0L 244.759 0L 269.5 30.5L 244.759 60L 0 60L 0 0Z"/>
<path id="path1_stroke_2x" d="M 0 0L 0 -2L -2 -2L -2 0L 0 0ZM 244.759 0L 246.312 -1.25994L 245.712 -2L 244.759 -2L 244.759 0ZM 244.759 60L 244.759 62L 245.692 62L 246.292 61.2852L 244.759 60ZM 0 60L -2 60L -2 62L 0 62L 0 60ZM 269.5 30.5L 271.032 31.7852L 272.092 30.5212L 271.053 29.2401L 269.5 30.5ZM 0 2L 244.759 2L 244.759 -2L 0 -2L 0 2ZM 244.759 58L 0 58L 0 62L 244.759 62L 244.759 58ZM 2 60L 2 0L -2 0L -2 60L 2 60ZM 243.206 1.25994L 267.947 31.7599L 271.053 29.2401L 246.312 -1.25994L 243.206 1.25994ZM 267.968 29.2148L 243.227 58.7148L 246.292 61.2852L 271.032 31.7852L 267.968 29.2148Z"/>
</defs>
</svg>
